ply
format ascii 1.0
comment Created in Blender version 4.3.2
element vertex 555
property float x
property float y
property float z
property float s
property float t
element face 500
property list uchar uint vertex_indices
end_header
0.46875 -0.7578125 0.2421875 0.84325 0.588863
0.4375 -0.765625 0.1640625 0.833697 0.611927
0.5 -0.6875 0.09375 0.794218 0.611927
0.5625 -0.671875 0.2421875 0.815334 0.560948
-0.5 -0.6875 0.09375 0.866314 0.937441
-0.4375 -0.765625 0.1640625 0.866314 0.897962
-0.46875 -0.7578125 0.2421875 0.889378 0.888409
-0.5625 -0.671875 0.2421875 0.917293 0.916324
0.546875 -0.578125 0.0546875 0.746541 0.611927
0.625 -0.5625 0.2421875 0.781622 0.527235
-0.546875 -0.578125 0.0546875 0.866314 0.985118
-0.625 -0.5625 0.2421875 0.951006 0.950037
0.3515625 -0.71875 0.03125 0.815334 0.662907
0.3515625 -0.6171875 -0.0234375 0.781622 0.696619
-0.3515625 -0.6171875 -0.0234375 0.781622 0.950037
-0.3515625 -0.71875 0.03125 0.815334 0.916325
0.3515625 -0.78125 0.1328125 0.84325 0.634991
-0.3515625 -0.78125 0.1328125 0.84325 0.888409
0.2734375 -0.796875 0.1640625 0.866314 0.644544
0.203125 -0.7421875 0.09375 0.866314 0.684023
-0.203125 -0.7421875 0.09375 0.794218 0.865345
-0.2734375 -0.796875 0.1640625 0.833697 0.865345
0.15625 -0.6484375 0.0546875 0.866314 0.7317
-0.15625 -0.6484375 0.0546875 0.746541 0.865345
0.140625 -0.7421875 0.2421875 0.917293 0.662907
0.078125 -0.65625 0.2421875 0.951006 0.696619
-0.078125 -0.65625 0.2421875 0.781622 0.780653
-0.140625 -0.7421875 0.2421875 0.815334 0.814366
0.2421875 -0.796875 0.2421875 0.889378 0.634991
-0.2421875 -0.796875 0.2421875 0.84325 0.842281
0.2734375 -0.796875 0.328125 0.898931 0.611927
0.203125 -0.7421875 0.390625 0.93841 0.611927
-0.203125 -0.7421875 0.390625 0.866314 0.793249
-0.2734375 -0.796875 0.328125 0.866314 0.832728
0.15625 -0.6484375 0.4375 0.986087 0.611927
-0.15625 -0.6484375 0.4375 0.866314 0.745572
0.3515625 -0.71875 0.453125 0.917294 0.560947
0.3515625 -0.6171875 0.515625 0.951006 0.527235
-0.3515625 -0.6171875 0.515625 0.951006 0.780653
-0.3515625 -0.71875 0.453125 0.917294 0.814365
0.3515625 -0.78125 0.359375 0.889378 0.588863
-0.3515625 -0.78125 0.359375 0.889378 0.842281
0.4375 -0.765625 0.328125 0.866314 0.57931
0.5 -0.6875 0.390625 0.866314 0.539831
-0.5 -0.6875 0.390625 0.93841 0.865345
-0.4375 -0.765625 0.328125 0.898931 0.865345
0.546875 -0.578125 0.4375 0.866314 0.492154
-0.546875 -0.578125 0.4375 0.986087 0.865345
0.4453125 -0.78125 0.3359375 0.866314 0.585461
0.4765625 -0.7734375 0.2421875 0.8476 0.593213
-0.4453125 -0.78125 0.3359375 0.89278 0.865345
-0.4765625 -0.7734375 0.2421875 0.885028 0.884059
0.3515625 -0.8046875 0.375 0.885028 0.593213
-0.3515625 -0.8046875 0.375 0.885028 0.846631
0.265625 -0.8203125 0.3359375 0.89278 0.611927
-0.265625 -0.8203125 0.3359375 0.866314 0.838879
0.2265625 -0.8203125 0.2421875 0.885028 0.630641
-0.2265625 -0.8203125 0.2421875 0.8476 0.846631
0.265625 -0.8203125 0.15625 0.866314 0.638393
-0.265625 -0.8203125 0.15625 0.839848 0.865345
0.3515625 -0.8046875 0.1171875 0.8476 0.630641
-0.3515625 -0.8046875 0.1171875 0.8476 0.884059
0.4453125 -0.78125 0.15625 0.839848 0.611927
-0.4453125 -0.78125 0.15625 0.866314 0.891811
0.3515625 -0.828125 0.2421875 0.866314 0.611927
-0.3515625 -0.828125 0.2421875 0.866314 0.865345
0.1796875 -0.5546875 -0.96875 0.520711 0.060503
0.1640625 -0.6328125 -0.9296875 0.517028 0.06849
0 -0.640625 -0.9453125 0.5 0.064527
0 -0.578125 -0.984375 0.5 0.054411
-0.1640625 -0.6328125 -0.9296875 0.482972 0.06849
-0.1796875 -0.5546875 -0.96875 0.479289 0.060503
0.328125 -0.5234375 -0.9453125 0.530457 0.065062
0.234375 -0.6328125 -0.9140625 0.522612 0.070678
-0.234375 -0.6328125 -0.9140625 0.477388 0.070678
-0.328125 -0.5234375 -0.9453125 0.469543 0.065062
0.3671875 -0.53125 -0.890625 0.532878 0.067822
0.265625 -0.6640625 -0.8203125 0.526301 0.079422
-0.265625 -0.6640625 -0.8203125 0.473699 0.079422
-0.3671875 -0.53125 -0.890625 0.467122 0.067822
0.3515625 -0.5703125 -0.6953125 0.544695 0.083023
0.25 -0.6875 -0.703125 0.529228 0.091098
-0.25 -0.6875 -0.703125 0.470772 0.091098
-0.3515625 -0.5703125 -0.6953125 0.455305 0.083023
0.3125 -0.5703125 -0.4375 0.565647 0.115495
0.2109375 -0.7109375 -0.4453125 0.537536 0.127779
-0.2109375 -0.7109375 -0.4453125 0.462464 0.127779
-0.3125 -0.5703125 -0.4375 0.434353 0.115495
0.203125 -0.5625 -0.1875 0.586916 0.172042
0.4375 -0.53125 -0.140625 0.626605 0.208159
0.3984375 -0.671875 -0.046875 0.60047 0.238288
0.125 -0.8125 -0.1015625 0.535885 0.215568
-0.3984375 -0.671875 -0.046875 0.39953 0.238288
-0.4375 -0.53125 -0.140625 0.373395 0.208159
-0.203125 -0.5625 -0.1875 0.413084 0.172042
-0.125 -0.8125 -0.1015625 0.464115 0.215568
0.6328125 -0.5390625 -0.0390625 0.650908 0.240294
0.6171875 -0.625 0.0546875 0.636962 0.261221
-0.6171875 -0.625 0.0546875 0.363038 0.261221
-0.6328125 -0.5390625 -0.0390625 0.349092 0.240294
0.828125 -0.4453125 0.1484375 0.689501 0.268805
0.7265625 -0.6015625 0.203125 0.655896 0.284413
-0.7265625 -0.6015625 0.203125 0.344104 0.284413
-0.828125 -0.4453125 0.1484375 0.310499 0.268805
0.859375 -0.59375 0.4296875 0.684517 0.317795
0.7421875 -0.65625 0.375 0.659507 0.313152
-0.7421875 -0.65625 0.375 0.340493 0.313152
-0.859375 -0.59375 0.4296875 0.315483 0.317795
0.7109375 -0.625 0.484375 0.671357 0.334694
0.6875 -0.7265625 0.4140625 0.649107 0.322437
-0.6875 -0.7265625 0.4140625 0.350893 0.322437
-0.7109375 -0.625 0.484375 0.328643 0.334694
0.4921875 -0.6875 0.6015625 0.636775 0.370732
0.4375 -0.796875 0.546875 0.613636 0.353108
-0.4375 -0.796875 0.546875 0.386364 0.353108
-0.4921875 -0.6875 0.6015625 0.363225 0.370732
0.3203125 -0.734375 0.7578125 0.602261 0.395588
0.3125 -0.8359375 0.640625 0.594178 0.371277
-0.3125 -0.8359375 0.640625 0.405822 0.371277
-0.3203125 -0.734375 0.7578125 0.397739 0.395588
0.15625 -0.7578125 0.71875 0.581044 0.398468
0.203125 -0.8515625 0.6171875 0.577351 0.373341
-0.203125 -0.8515625 0.6171875 0.422649 0.373341
-0.15625 -0.7578125 0.71875 0.418956 0.398468
0.0625 -0.75 0.4921875 0.532016 0.387365
0.1015625 -0.84375 0.4296875 0.539817 0.354339
-0.1015625 -0.84375 0.4296875 0.460183 0.354339
-0.0625 -0.75 0.4921875 0.467984 0.387365
0 -0.7421875 0.4296875 0.5 0.38286
0 -0.8203125 0.3515625 0.5 0.340417
0.1640625 -0.7734375 0.4140625 0.559135 0.334326
0.25 -0.7578125 0.46875 0.579057 0.335646
-0.25 -0.7578125 0.46875 0.420943 0.335646
-0.1640625 -0.7734375 0.4140625 0.440865 0.334326
0.328125 -0.7421875 0.4765625 0.59209 0.332885
-0.328125 -0.7421875 0.4765625 0.40791 0.332885
0.4296875 -0.71875 0.4375 0.606163 0.325516
-0.4296875 -0.71875 0.4375 0.393837 0.325516
0.6015625 -0.6640625 0.375 0.628251 0.311636
-0.6015625 -0.6640625 0.375 0.371749 0.311636
0.640625 -0.6484375 0.296875 0.635551 0.300507
-0.640625 -0.6484375 0.296875 0.364449 0.300507
0.625 -0.6484375 0.1875 0.631484 0.283889
-0.625 -0.6484375 0.1875 0.368516 0.283889
0.4921875 -0.671875 0.0625 0.611331 0.264411
-0.4921875 -0.671875 0.0625 0.388669 0.264411
0.375 -0.703125 0.015625 0.592372 0.254897
-0.375 -0.703125 0.015625 0.407628 0.254897
0.203125 -0.7421875 0.09375 0.559669 0.267717
-0.203125 -0.7421875 0.09375 0.440331 0.267717
0.1640625 -0.75 0.140625 0.550878 0.277832
0 -0.7265625 0.046875 0.5 0.252445
-0.1640625 -0.75 0.140625 0.449122 0.277832
0.125 -0.765625 0.3046875 0.544001 0.314523
-0.125 -0.765625 0.3046875 0.455999 0.314523
0 -0.765625 0.2109375 0.5 0.295691
0.1328125 -0.7578125 0.2109375 0.543637 0.293371
-0.1328125 -0.7578125 0.2109375 0.456363 0.293371
0.0625 -0.6953125 -0.8828125 0.506819 0.075382
0 -0.6875 -0.890625 0.5 0.073497
-0.0625 -0.6953125 -0.8828125 0.493181 0.075382
0.1171875 -0.7109375 -0.8359375 0.511782 0.080633
-0.1171875 -0.7109375 -0.8359375 0.488218 0.080633
0.109375 -0.734375 -0.71875 0.512172 0.093457
-0.109375 -0.734375 -0.71875 0.487828 0.093457
0.078125 -0.75 -0.4453125 0.514257 0.133422
0.1171875 -0.734375 -0.6875 0.513874 0.097191
-0.1171875 -0.734375 -0.6875 0.486126 0.097191
-0.078125 -0.75 -0.4453125 0.485743 0.133422
0.0859375 -0.7421875 -0.2890625 0.520226 0.164615
0 -0.7421875 -0.328125 0.5 0.157864
0 -0.75 -0.4453125 0.5 0.134352
-0.0859375 -0.7421875 -0.2890625 0.479774 0.164615
0 -0.734375 -0.6796875 0.5 0.100063
0 -0.734375 -0.765625 0.5 0.091346
0.125 -0.75 -0.2265625 0.530258 0.180239
0.1328125 -0.796875 -0.2265625 0.521901 0.18156
0.09375 -0.78125 -0.2734375 0.517666 0.172353
-0.09375 -0.78125 -0.2734375 0.482334 0.172353
-0.1328125 -0.796875 -0.2265625 0.478099 0.18156
-0.125 -0.75 -0.2265625 0.469742 0.180239
0.1015625 -0.7421875 -0.1484375 0.523673 0.198817
0.109375 -0.78125 -0.1328125 0.518957 0.194728
-0.109375 -0.78125 -0.1328125 0.481043 0.194728
-0.1015625 -0.7421875 -0.1484375 0.476327 0.198817
0 -0.7421875 -0.140625 0.5 0.203867
0.0390625 -0.78125 -0.125 0.508211 0.197295
-0.0390625 -0.78125 -0.125 0.491789 0.197295
0 -0.75 -0.1953125 0.5 0.197278
0 -0.796875 -0.1875 0.5 0.192167
0 -0.78125 -0.3203125 0.5 0.16517
0.078125 -0.8046875 -0.25 0.513538 0.176949
0 -0.8046875 -0.2890625 0.5 0.171718
-0.078125 -0.8046875 -0.25 0.486462 0.176949
0 -0.828125 -0.203125 0.5 0.186182
0.046875 -0.8125 -0.1484375 0.508818 0.192407
-0.046875 -0.8125 -0.1484375 0.491182 0.192407
0.09375 -0.8125 -0.15625 0.515232 0.190709
-0.09375 -0.8125 -0.15625 0.484768 0.190709
0.109375 -0.828125 -0.2265625 0.516908 0.181873
-0.109375 -0.828125 -0.2265625 0.483092 0.181873
0.1640625 -0.7109375 -0.2421875 0.544209 0.172814
-0.1640625 -0.7109375 -0.2421875 0.455791 0.172814
0.1796875 -0.7109375 -0.3125 0.541327 0.154899
-0.1796875 -0.7109375 -0.3125 0.458673 0.154899
0.2578125 -0.5546875 -0.3125 0.578661 0.139176
-0.2578125 -0.5546875 -0.3125 0.421339 0.139176
0.234375 -0.5546875 -0.25 0.583245 0.154155
-0.234375 -0.5546875 -0.25 0.416755 0.154155
0 -0.71875 -0.7734375 0.5 0.089977
0.09375 -0.7265625 -0.7421875 0.509911 0.090724
-0.09375 -0.7265625 -0.7421875 0.490089 0.090724
0.09375 -0.7109375 -0.8203125 0.509713 0.082236
-0.09375 -0.7109375 -0.8203125 0.490287 0.082236
0.046875 -0.6875 -0.8671875 0.505196 0.077083
-0.046875 -0.6875 -0.8671875 0.494804 0.077083
0 -0.6875 -0.875 0.5 0.075473
0.046875 -0.6328125 -0.8515625 0.503445 0.08084
0 -0.6328125 -0.859375 0.5 0.08032
-0.046875 -0.6328125 -0.8515625 0.496555 0.08084
0.09375 -0.640625 -0.8125 0.50666 0.083289
-0.09375 -0.640625 -0.8125 0.49334 0.083289
0.09375 -0.6640625 -0.75 0.506822 0.086791
-0.09375 -0.6640625 -0.75 0.493178 0.086791
0 -0.65625 -0.78125 0.5 0.085637
0.1875 -0.7734375 0.15625 0.562361 0.284338
0.171875 -0.78125 0.21875 0.55919 0.294882
-0.1875 -0.7734375 0.15625 0.437639 0.284338
-0.171875 -0.78125 0.21875 0.44081 0.294882
0.1796875 -0.78125 0.296875 0.56318 0.307151
-0.1796875 -0.78125 0.296875 0.43682 0.307151
0.2109375 -0.78125 0.375 0.570458 0.318697
-0.2109375 -0.78125 0.375 0.429542 0.318697
0.2265625 -0.78125 0.109375 0.569243 0.278245
-0.2265625 -0.78125 0.109375 0.430757 0.278245
0.375 -0.7421875 0.0625 0.589914 0.271772
-0.375 -0.7421875 0.0625 0.410086 0.271772
0.4765625 -0.71875 0.1015625 0.60219 0.27718
-0.4765625 -0.71875 0.1015625 0.39781 0.27718
0.578125 -0.6796875 0.1953125 0.61711 0.287175
-0.578125 -0.6796875 0.1953125 0.38289 0.287175
0.5859375 -0.6875 0.2890625 0.618074 0.299197
-0.5859375 -0.6875 0.2890625 0.381926 0.299197
0.5625 -0.6953125 0.3515625 0.615871 0.307438
-0.5625 -0.6953125 0.3515625 0.384129 0.307438
0.421875 -0.7734375 0.3984375 0.598424 0.313725
-0.421875 -0.7734375 0.3984375 0.401576 0.313725
0.3359375 -0.7578125 0.4296875 0.590828 0.319797
-0.3359375 -0.7578125 0.4296875 0.409172 0.319797
0.2734375 -0.7734375 0.421875 0.58213 0.320991
-0.2734375 -0.7734375 0.421875 0.41787 0.320991
0.234375 -0.7578125 0.359375 0.578615 0.309394
0.28125 -0.765625 0.3984375 0.583998 0.312892
-0.234375 -0.7578125 0.359375 0.421385 0.309394
-0.28125 -0.765625 0.3984375 0.416002 0.312892
0.3359375 -0.75 0.40625 0.589656 0.312336
-0.3359375 -0.75 0.40625 0.410344 0.312336
0.4140625 -0.75 0.390625 0.596347 0.309249
-0.4140625 -0.75 0.390625 0.403653 0.309249
0.53125 -0.6796875 0.3359375 0.606014 0.302517
-0.53125 -0.6796875 0.3359375 0.393986 0.302517
0.5546875 -0.671875 0.28125 0.607735 0.29752
-0.5546875 -0.671875 0.28125 0.392265 0.29752
0.546875 -0.671875 0.2109375 0.606985 0.291216
-0.546875 -0.671875 0.2109375 0.393015 0.291216
0.4609375 -0.703125 0.1171875 0.598275 0.283083
-0.4609375 -0.703125 0.1171875 0.401725 0.283083
0.375 -0.7265625 0.0859375 0.589866 0.280167
-0.375 -0.7265625 0.0859375 0.410134 0.280167
0.2421875 -0.7578125 0.125 0.576352 0.284624
-0.2421875 -0.7578125 0.125 0.423648 0.284624
0.203125 -0.75 0.171875 0.572831 0.289915
-0.203125 -0.75 0.171875 0.427169 0.289915
0.1953125 -0.7578125 0.296875 0.573307 0.303342
-0.1953125 -0.7578125 0.296875 0.426693 0.303342
0.1953125 -0.75 0.2265625 0.572447 0.295716
-0.1953125 -0.75 0.2265625 0.427553 0.295716
0.109375 -0.609375 0.4609375 0.529647 0.428636
0 -0.6015625 0.40625 0.5 0.428636
-0.109375 -0.609375 0.4609375 0.470353 0.428636
0.1953125 -0.6171875 0.6640625 0.584616 0.428636
-0.1953125 -0.6171875 0.6640625 0.415384 0.428636
0.3359375 -0.59375 0.6875 0.622301 0.417889
-0.3359375 -0.59375 0.6875 0.377699 0.417889
0.484375 -0.5546875 0.5546875 0.666214 0.388954
-0.484375 -0.5546875 0.5546875 0.333786 0.388954
0.6796875 -0.4921875 0.453125 0.701481 0.344467
-0.6796875 -0.4921875 0.453125 0.298519 0.344467
0.796875 -0.4609375 0.40625 0.712163 0.315527
-0.796875 -0.4609375 0.40625 0.287837 0.315527
0.7734375 -0.375 0.1640625 0.704305 0.260225
-0.7734375 -0.375 0.1640625 0.295695 0.260225
0.6015625 -0.4140625 0 0.672947 0.22488
-0.6015625 -0.4140625 0 0.327053 0.22488
0.4375 -0.46875 -0.09375 0.640497 0.198841
-0.4375 -0.46875 -0.09375 0.359503 0.198841
0 -0.3203125 -0.5703125 0.603553 0.023452
0 -0.28125 -0.484375 0.625128 0.029461
0.1796875 -0.2578125 -0.4140625 0.635753 0.082198
0.125 -0.359375 -0.5390625 0.598617 0.056841
-0.1796875 -0.2578125 -0.4140625 0.364247 0.082198
0 -0.28125 -0.484375 0.374872 0.029461
0 -0.3203125 -0.5703125 0.396447 0.023452
-0.125 -0.359375 -0.5390625 0.401383 0.056841
0 -0.34375 -0.8046875 0.546781 0.009442
0.140625 -0.3671875 -0.7578125 0.556354 0.040906
0 -0.34375 -0.8046875 0.453219 0.009442
-0.140625 -0.3671875 -0.7578125 0.443646 0.040906
0 -0.4609375 -0.9765625 0.5 0.033223
0.1640625 -0.4375 -0.9453125 0.527159 0.049514
-0.1640625 -0.4375 -0.9453125 0.472841 0.049514
0.328125 -0.3984375 -0.9140625 0.537222 0.060794
-0.328125 -0.3984375 -0.9140625 0.462778 0.060794
0.2890625 -0.3828125 -0.7109375 0.558499 0.065137
-0.2890625 -0.3828125 -0.7109375 0.441501 0.065137
0.25 -0.390625 -0.5 0.588127 0.085177
-0.25 -0.390625 -0.5 0.411873 0.085177
0.234375 -0.40625 -0.3515625 0.607239 0.11394
-0.234375 -0.40625 -0.3515625 0.392761 0.11394
0.21875 -0.4296875 -0.28125 0.612663 0.133675
0.2109375 -0.46875 -0.2265625 0.605467 0.151503
-0.2109375 -0.46875 -0.2265625 0.394533 0.151503
-0.21875 -0.4296875 -0.28125 0.387337 0.133675
0.203125 -0.5 -0.171875 0.600708 0.162985
-0.203125 -0.5 -0.171875 0.399292 0.162985
0 0.828125 0.0703125 0.922374 0.064228
0.3359375 0.6640625 0.0546875 0.859647 0.117994
0.34375 0.5390625 -0.1484375 0.823287 0.101559
0 0.671875 -0.1953125 0.861342 0.02723
-0.34375 0.5390625 -0.1484375 0.176713 0.101559
-0.3359375 0.6640625 0.0546875 0.140353 0.117994
0 0.828125 0.0703125 0.077626 0.064228
0 0.671875 -0.1953125 0.138658 0.02723
0.296875 0.265625 -0.3125 0.765863 0.087001
0 0.3515625 -0.3828125 0.774604 0.010837
-0.296875 0.265625 -0.3125 0.234137 0.087001
0 0.3515625 -0.3828125 0.225396 0.010837
0.2109375 -0.1640625 -0.390625 0.661952 0.087561
0 -0.1875 -0.4609375 0.64701 0.028716
-0.2109375 -0.1640625 -0.390625 0.338048 0.087561
0 -0.1875 -0.4609375 0.35299 0.028716
0.734375 -0.0703125 -0.046875 0.743592 0.198572
0.8515625 -0.0546875 0.234375 0.76641 0.233065
-0.734375 -0.0703125 -0.046875 0.256408 0.198572
-0.8515625 -0.0546875 0.234375 0.23359 0.233065
0 0.8515625 0.5625 0.987633 0.154243
0.4609375 0.703125 0.4375 0.889478 0.177602
-0.4609375 0.703125 0.4375 0.110522 0.177602
0 0.8515625 0.5625 0.012367 0.154243
0 -0.2890625 0.8984375 0.899807 0.420886
0.453125 -0.234375 0.8515625 0.844317 0.34737
0.453125 0.0703125 0.9296875 0.881169 0.309153
0 0.078125 0.984375 0.958963 0.357385
-0.453125 0.0703125 0.9296875 0.118831 0.309153
-0.453125 -0.234375 0.8515625 0.155683 0.34737
0 -0.2890625 0.8984375 0.100193 0.420886
0 0.078125 0.984375 0.041037 0.357385
0.453125 0.3828125 0.8671875 0.903302 0.261367
0 0.546875 0.8984375 0.99986 0.253531
-0.453125 0.3828125 0.8671875 0.096698 0.261367
0 0.546875 0.8984375 0.00014 0.253531
0.6796875 -0.4921875 0.453125 0.724763 0.340212
0.7265625 -0.3359375 0.40625 0.744725 0.304629
0.6328125 -0.28125 0.453125 0.766113 0.319494
-0.7265625 -0.3359375 0.40625 0.255275 0.304629
-0.6796875 -0.4921875 0.453125 0.275237 0.340212
-0.6328125 -0.28125 0.453125 0.233887 0.319494
0.796875 -0.125 0.5625 0.793427 0.280495
0.640625 -0.0546875 0.703125 0.826663 0.29781
-0.796875 -0.125 0.5625 0.206573 0.280495
-0.640625 -0.0546875 0.703125 0.173337 0.29781
0.796875 0.1171875 0.6171875 0.82362 0.254612
0.640625 0.1953125 0.75 0.855331 0.267956
-0.796875 0.1171875 0.6171875 0.17638 0.254612
-0.640625 0.1953125 0.75 0.144669 0.267956
0.796875 0.359375 0.5390625 0.83586 0.225225
0.640625 0.4453125 0.6796875 0.868309 0.233525
-0.796875 0.359375 0.5390625 0.16414 0.225225
-0.640625 0.4453125 0.6796875 0.131691 0.233525
0.7734375 0.4375 0.265625 0.813499 0.190705
0.6171875 0.5859375 0.328125 0.851288 0.181145
-0.6171875 0.5859375 0.328125 0.148712 0.181145
-0.7734375 0.4375 0.265625 0.186501 0.190705
0.4609375 -0.4296875 0.5234375 0.772263 0.37401
-0.4609375 -0.4296875 0.5234375 0.227737 0.37401
0.484375 -0.5546875 0.5546875 0.744519 0.390057
-0.484375 -0.5546875 0.5546875 0.255481 0.390057
0 -0.5703125 0.5703125 0.824765 0.470987
0 -0.5703125 0.5703125 0.175235 0.470987
0.109375 -0.609375 0.4609375 0.792141 0.464714
0.1953125 -0.6171875 0.6640625 0.742181 0.461543
0.3359375 -0.59375 0.6875 0.726855 0.432574
-0.3359375 -0.59375 0.6875 0.273145 0.432574
-0.1953125 -0.6171875 0.6640625 0.257819 0.461543
-0.109375 -0.609375 0.4609375 0.207859 0.464714
0 -0.6015625 0.40625 0.795638 0.489991
0 -0.6015625 0.40625 0.204362 0.489991
0.859375 0.046875 0.3203125 0.786137 0.227788
-0.859375 0.046875 0.3203125 0.213863 0.227788
0.8203125 0.203125 0.328125 0.80295 0.203415
-0.8203125 0.203125 0.328125 0.19705 0.203415
0.4296875 0.2109375 -0.1953125 0.769334 0.128771
0.40625 -0.1484375 -0.171875 0.691484 0.146686
-0.4296875 0.2109375 -0.1953125 0.230666 0.128771
-0.40625 -0.1484375 -0.171875 0.308516 0.146686
0.59375 0.1640625 -0.125 0.780113 0.169386
-0.59375 0.1640625 -0.125 0.219887 0.169386
0.640625 0.4296875 -0.0078125 0.803789 0.171181
0.484375 0.546875 0.0234375 0.830917 0.139518
-0.484375 0.546875 0.0234375 0.169083 0.139518
-0.640625 0.4296875 -0.0078125 0.196211 0.171181
1.0234375 0.3125 0.4765625 0.574628 0.959188
0.890625 0.234375 0.40625 0.464516 0.959188
0.921875 0.21875 0.359375 0.477326 0.891852
1.015625 0.2890625 0.4140625 0.545439 0.884582
-0.921875 0.21875 0.359375 0.2729 0.891852
-0.890625 0.234375 0.40625 0.28571 0.959188
-1.0234375 0.3125 0.4765625 0.175598 0.959188
-1.015625 0.2890625 0.4140625 0.204787 0.884582
1.1875 0.390625 0.4375 0.605134 0.846978
1.234375 0.421875 0.5078125 0.715894 0.897069
-1.1875 0.390625 0.4375 0.145092 0.846978
-1.234375 0.421875 0.5078125 0.034332 0.897069
1.265625 0.40625 0.2890625 0.60536 0.78441
1.3515625 0.421875 0.3203125 0.683874 0.757011
-1.265625 0.40625 0.2890625 0.144866 0.78441
-1.3515625 0.421875 0.3203125 0.066352 0.757011
1.2109375 0.40625 0.078125 0.574835 0.744212
1.28125 0.4296875 0.0546875 0.617867 0.719156
-1.2109375 0.40625 0.078125 0.175391 0.744212
-1.28125 0.4296875 0.0546875 0.132359 0.719156
1.03125 0.3046875 -0.0390625 0.534996 0.712528
1.0390625 0.328125 -0.1015625 0.568728 0.682132
-1.03125 0.3046875 -0.0390625 0.21523 0.712528
-1.0390625 0.328125 -0.1015625 0.181498 0.682132
0.828125 0.1328125 -0.0703125 0.483006 0.686791
0.7734375 0.125 -0.140625 0.508539 0.641024
-0.828125 0.1328125 -0.0703125 0.26722 0.686791
-0.7734375 0.125 -0.140625 0.241687 0.641024
1.0390625 0.3671875 0 0.513415 0.736977
0.8828125 0.2109375 -0.0234375 0.47888 0.719593
-0.8828125 0.2109375 -0.0234375 0.271346 0.719593
-1.0390625 0.3671875 0 0.236811 0.736977
1.1875 0.4453125 0.09375 0.541117 0.760754
-1.1875 0.4453125 0.09375 0.209109 0.760754
1.234375 0.4453125 0.25 0.557599 0.789442
-1.234375 0.4453125 0.25 0.192627 0.789442
1.171875 0.4375 0.359375 0.553841 0.821849
-1.171875 0.4375 0.359375 0.196385 0.821849
1.0234375 0.359375 0.34375 0.524671 0.84238
-1.0234375 0.359375 0.34375 0.225555 0.84238
0.9453125 0.2890625 0.3046875 0.485193 0.845321
-0.9453125 0.2890625 0.3046875 0.265033 0.845321
0.71875 0.171875 -0.0234375 0.78615 0.181127
0.7265625 0.0703125 0 0.770208 0.191225
-0.71875 0.171875 -0.0234375 0.21385 0.181127
-0.7265625 0.0703125 0 0.229792 0.191225
0.59375 0.1640625 -0.125 0.408153 0.587507
0.71875 0.171875 -0.0234375 0.40961 0.674022
-0.59375 0.1640625 -0.125 0.342073 0.587507
-0.71875 0.171875 -0.0234375 0.340616 0.674022
0.8203125 0.203125 0.328125 0.400301 0.910556
0.84375 0.2109375 0.2890625 0.414155 0.878318
-0.84375 0.2109375 0.2890625 0.336071 0.878318
-0.8203125 0.203125 0.328125 0.349925 0.910556
0.8125 0.2734375 -0.015625 0.44363 0.713731
-0.8125 0.2734375 -0.015625 0.306596 0.713731
0.84375 0.2734375 0.015625 0.429725 0.728622
0.71875 0.1875 0.0390625 0.392812 0.710774
-0.71875 0.1875 0.0390625 0.357414 0.710774
-0.84375 0.2734375 0.015625 0.320501 0.728622
0.7578125 0.2734375 0.09375 0.422979 0.754609
0.8203125 0.2734375 0.0859375 0.43264 0.746527
-0.7578125 0.2734375 0.09375 0.327247 0.754609
-0.8203125 0.2734375 0.0859375 0.317586 0.746527
0.8359375 0.2734375 0.171875 0.427719 0.796173
0.796875 0.2109375 0.203125 0.391578 0.815187
-0.796875 0.2109375 0.203125 0.358648 0.815187
-0.8359375 0.2734375 0.171875 0.322507 0.796173
0.890625 0.265625 0.2421875 0.448277 0.830976
-0.890625 0.265625 0.2421875 0.301949 0.830976
0.796875 0.2109375 0.203125 0.79771 0.195652
0.84375 0.2109375 0.2890625 0.80258 0.199758
-0.84375 0.2109375 0.2890625 0.19742 0.199758
-0.796875 0.2109375 0.203125 0.20229 0.195652
0.71875 0.1875 0.0390625 0.789609 0.184671
-0.71875 0.1875 0.0390625 0.210391 0.184671
0.890625 0.3203125 0.234375 0.466042 0.804091
0.953125 0.34375 0.2890625 0.490498 0.816075
-0.890625 0.3203125 0.234375 0.284184 0.804091
-0.953125 0.34375 0.2890625 0.259728 0.816075
0.84375 0.3203125 0.171875 0.448042 0.783921
-0.84375 0.3203125 0.171875 0.302184 0.783921
0.765625 0.3203125 0.09375 0.438745 0.76496
-0.765625 0.3203125 0.09375 0.311481 0.76496
0.828125 0.3203125 0.078125 0.445216 0.756351
-0.828125 0.3203125 0.078125 0.30501 0.756351
0.8515625 0.3203125 0.015625 0.449819 0.743458
-0.8515625 0.3203125 0.015625 0.300407 0.743458
0.8125 0.3203125 -0.015625 0.456307 0.732687
-0.8125 0.3203125 -0.015625 0.293919 0.732687
0.8828125 0.265625 -0.015625 0.475471 0.740871
-0.8828125 0.265625 -0.015625 0.274755 0.740871
1.0390625 0.4140625 0.328125 0.514211 0.817769
-1.0390625 0.4140625 0.328125 0.236015 0.817769
1.1875 0.484375 0.34375 0.527961 0.808598
-1.1875 0.484375 0.34375 0.222265 0.808598
1.2578125 0.4921875 0.2421875 0.530079 0.790754
-1.2578125 0.4921875 0.2421875 0.220147 0.790754
1.2109375 0.484375 0.0859375 0.51862 0.772385
-1.2109375 0.484375 0.0859375 0.231606 0.772385
1.046875 0.421875 0 0.498668 0.755033
-1.046875 0.421875 0 0.251558 0.755033
0.9375 0.3359375 0.0625 0.468029 0.756171
0.890625 0.328125 0.109375 0.45966 0.770459
-0.9375 0.3359375 0.0625 0.282197 0.756171
-0.890625 0.328125 0.109375 0.290566 0.770459
1 0.3671875 0.125 0.487167 0.769899
0.9609375 0.3515625 0.171875 0.477354 0.785393
-1 0.3671875 0.125 0.263059 0.769899
-0.9609375 0.3515625 0.171875 0.272872 0.785393
1.0546875 0.3828125 0.1875 0.504617 0.782999
1.015625 0.375 0.234375 0.496545 0.797122
-1.0546875 0.3828125 0.1875 0.245609 0.782999
-1.015625 0.375 0.234375 0.253681 0.797122
1.109375 0.390625 0.2109375 0.516137 0.792591
1.0859375 0.390625 0.2734375 0.513713 0.804019
-1.109375 0.390625 0.2109375 0.234089 0.792591
-1.0859375 0.390625 0.2734375 0.236513 0.804019
0.7890625 0.328125 -0.125 0.574269 0.607668
1.0390625 0.4921875 -0.0859375 0.61351 0.655816
-0.7890625 0.328125 -0.125 0.175957 0.607668
-1.0390625 0.4921875 -0.0859375 0.136716 0.655816
1.3125 0.53125 0.0546875 0.644031 0.69327
-1.3125 0.53125 0.0546875 0.106195 0.69327
1.3671875 0.5 0.296875 0.668163 0.712097
-1.3671875 0.5 0.296875 0.082063 0.712097
1.234375 0.421875 0.5078125 0.727131 0.698475
1.25 0.546875 0.46875 0.676584 0.68601
-1.234375 0.421875 0.5078125 0.023095 0.698475
-1.25 0.546875 0.46875 0.073642 0.68601
1.0234375 0.3125 0.4765625 0.729804 0.62437
1.0234375 0.484375 0.4375 0.667013 0.640198
-1.0234375 0.3125 0.4765625 0.020422 0.62437
-1.0234375 0.484375 0.4375 0.083213 0.640198
0.890625 0.234375 0.40625 0.721292 0.572934
0.859375 0.3828125 0.3828125 0.648152 0.594596
-0.890625 0.234375 0.40625 0.028934 0.572934
-0.859375 0.3828125 0.3828125 0.102074 0.594596
0.7734375 0.4375 0.265625 0.630034 0.557583
0.8203125 0.203125 0.328125 0.717709 0.538143
-0.8203125 0.203125 0.328125 0.032517 0.538143
-0.7734375 0.4375 0.265625 0.120192 0.557583
0.640625 0.4296875 -0.0078125 0.526877 0.539235
-0.640625 0.4296875 -0.0078125 0.223349 0.539235
4 0 1 2 3
4 4 5 6 7
4 3 2 8 9
4 10 4 7 11
4 2 12 13 8
4 14 15 4 10
4 1 16 12 2
4 15 17 5 4
4 16 18 19 12
4 20 21 17 15
4 12 19 22 13
4 23 20 15 14
4 19 24 25 22
4 26 27 20 23
4 18 28 24 19
4 27 29 21 20
4 28 30 31 24
4 32 33 29 27
4 24 31 34 25
4 35 32 27 26
4 31 36 37 34
4 38 39 32 35
4 30 40 36 31
4 39 41 33 32
4 40 42 43 36
4 44 45 41 39
4 36 43 46 37
4 47 44 39 38
4 43 3 9 46
4 11 7 44 47
4 42 0 3 43
4 7 6 45 44
4 0 42 48 49
4 50 45 6 51
4 42 40 52 48
4 53 41 45 50
4 40 30 54 52
4 55 33 41 53
4 30 28 56 54
4 57 29 33 55
4 28 18 58 56
4 59 21 29 57
4 18 16 60 58
4 61 17 21 59
4 16 1 62 60
4 63 5 17 61
4 1 0 49 62
4 51 6 5 63
3 64 62 49
3 51 63 65
3 60 62 64
3 65 63 61
3 64 58 60
3 61 59 65
3 64 56 58
3 59 57 65
3 64 54 56
3 57 55 65
3 64 52 54
3 55 53 65
3 64 48 52
3 53 50 65
3 64 49 48
3 50 51 65
4 66 67 68 69
4 68 70 71 69
4 72 73 67 66
4 70 74 75 71
4 76 77 73 72
4 74 78 79 75
4 80 81 77 76
4 78 82 83 79
4 84 85 81 80
4 82 86 87 83
4 88 89 90 91
4 92 93 94 95
4 89 96 97 90
4 98 99 93 92
4 96 100 101 97
4 102 103 99 98
4 100 104 105 101
4 106 107 103 102
4 104 108 109 105
4 110 111 107 106
4 108 112 113 109
4 114 115 111 110
4 112 116 117 113
4 118 119 115 114
4 116 120 121 117
4 122 123 119 118
4 120 124 125 121
4 126 127 123 122
4 124 128 129 125
4 129 128 127 126
4 130 131 121 125
4 122 132 133 126
4 131 134 117 121
4 118 135 132 122
4 136 113 117 134
4 118 114 137 135
4 138 109 113 136
4 114 110 139 137
4 140 105 109 138
4 110 106 141 139
4 142 101 105 140
4 106 102 143 141
4 144 97 101 142
4 102 98 145 143
4 146 90 97 144
4 98 92 147 145
4 148 91 90 146
4 92 95 149 147
4 148 150 151 91
4 151 152 149 95
4 130 125 129 153
4 129 126 133 154
4 153 129 155 156
4 155 129 154 157
4 151 150 156 155
4 157 152 151 155
4 158 159 68 67
4 68 159 160 70
4 161 158 67 73
4 70 160 162 74
4 163 161 73 77
4 74 162 164 78
4 85 165 166 81
4 167 168 86 82
4 163 77 81 166
4 82 78 164 167
4 169 170 171 165
4 171 170 172 168
4 166 165 171 173
4 171 168 167 173
4 174 163 166 173
4 167 164 174 173
4 175 176 177 169
4 178 179 180 172
4 181 182 176 175
4 179 183 184 180
4 185 186 182 181
4 183 187 185 184
4 188 189 186 185
4 187 189 188 185
4 170 169 177 190
4 178 172 170 190
4 190 177 191 192
4 193 178 190 192
4 189 194 195 186
4 196 194 189 187
4 186 195 197 182
4 198 196 187 183
4 182 197 199 176
4 200 198 183 179
4 176 199 191 177
4 193 200 179 178
4 194 199 197 195
4 198 200 194 196
4 194 192 191 199
4 193 192 194 200
4 185 181 91 151
4 95 184 185 151
4 181 175 201 91
4 202 180 184 95
4 175 169 203 201
4 204 172 180 202
4 169 165 85 203
4 86 168 172 204
4 84 205 203 85
4 204 206 87 86
4 205 207 201 203
4 202 208 206 204
4 88 91 201 207
4 202 95 94 208
4 163 174 209 210
4 209 174 164 211
4 161 163 210 212
4 211 164 162 213
4 158 161 212 214
4 213 162 160 215
4 159 158 214 216
4 215 160 159 216
4 216 214 217 218
4 219 215 216 218
4 214 212 220 217
4 221 213 215 219
4 212 210 222 220
4 223 211 213 221
4 210 209 224 222
4 224 209 211 223
4 224 218 217 222
4 219 218 224 223
3 222 217 220
3 221 219 223
4 156 150 225 226
4 227 152 157 228
4 153 156 226 229
4 228 157 154 230
4 130 153 229 231
4 230 154 133 232
4 150 148 233 225
4 234 149 152 227
4 148 146 235 233
4 236 147 149 234
4 146 144 237 235
4 238 145 147 236
4 144 142 239 237
4 240 143 145 238
4 142 140 241 239
4 242 141 143 240
4 140 138 243 241
4 244 139 141 242
4 138 136 245 243
4 246 137 139 244
4 136 134 247 245
4 248 135 137 246
4 134 131 249 247
4 250 132 135 248
4 131 130 231 249
4 232 133 132 250
4 249 231 251 252
4 253 232 250 254
4 247 249 252 255
4 254 250 248 256
4 245 247 255 257
4 256 248 246 258
4 243 245 257 259
4 258 246 244 260
4 241 243 259 261
4 260 244 242 262
4 239 241 261 263
4 262 242 240 264
4 237 239 263 265
4 264 240 238 266
4 235 237 265 267
4 266 238 236 268
4 233 235 267 269
4 268 236 234 270
4 225 233 269 271
4 270 234 227 272
4 231 229 273 251
4 274 230 232 253
4 229 226 275 273
4 276 228 230 274
4 226 225 271 275
4 272 227 228 276
4 128 124 277 278
4 279 127 128 278
4 124 120 280 277
4 281 123 127 279
4 120 116 282 280
4 283 119 123 281
4 116 112 284 282
4 285 115 119 283
4 112 108 286 284
4 287 111 115 285
4 108 104 288 286
4 289 107 111 287
4 104 100 290 288
4 291 103 107 289
4 100 96 292 290
4 293 99 103 291
4 96 89 294 292
4 295 93 99 293
4 296 297 298 299
4 300 301 302 303
4 304 296 299 305
4 303 302 306 307
4 308 304 305 309
4 307 306 308 310
4 66 69 308 309
4 308 69 71 310
4 72 66 309 311
4 310 71 75 312
4 76 72 311 313
4 312 75 79 314
4 80 76 313 315
4 314 79 83 316
4 313 305 299 315
4 303 307 314 316
4 313 311 309 305
4 310 312 314 307
4 317 315 299 298
4 303 316 318 300
4 84 80 315 317
4 316 83 87 318
4 205 319 320 207
4 321 322 206 208
4 84 317 319 205
4 322 318 87 206
4 88 207 320 323
4 321 208 94 324
4 88 323 294 89
4 295 324 94 93
4 325 326 327 328
4 329 330 331 332
4 328 327 333 334
4 335 329 332 336
4 334 333 337 338
4 339 335 336 340
4 338 337 298 297
4 300 339 340 301
4 317 298 337 319
4 339 300 318 322
4 290 292 341 342
4 343 293 291 344
4 345 346 326 325
4 330 347 348 331
4 349 350 351 352
4 353 354 355 356
4 352 351 357 358
4 359 353 356 360
4 358 357 346 345
4 347 359 360 348
4 361 288 362 363
4 364 289 365 366
4 363 362 367 368
4 369 364 366 370
4 368 367 371 372
4 373 369 370 374
4 372 371 375 376
4 377 373 374 378
4 379 380 376 375
4 378 381 382 377
4 346 357 376 380
4 378 359 347 381
4 357 351 372 376
4 374 353 359 378
4 351 350 368 372
4 370 354 353 374
4 350 383 363 368
4 366 384 354 370
4 385 361 363 383
4 366 365 386 384
4 387 383 350 349
4 354 384 388 355
4 389 390 391 385
4 392 393 394 386
4 389 385 383 387
4 384 386 394 388
3 395 389 387
3 388 394 396
4 288 290 342 362
4 344 291 289 364
4 342 397 367 362
4 369 398 344 364
4 397 399 371 367
4 373 400 398 369
4 379 375 371 399
4 373 377 382 400
4 337 333 401 402
4 403 335 339 404
4 341 402 401 405
4 403 404 343 406
4 292 294 402 341
4 404 295 293 343
4 294 320 319 402
4 322 321 295 404
3 319 337 402
3 404 339 322
3 294 323 320
3 321 324 295
4 379 407 408 380
4 409 410 382 381
4 346 380 408 326
4 409 381 347 330
4 405 401 408 407
4 409 403 406 410
4 333 327 408 401
4 409 329 335 403
3 326 408 327
3 329 409 330
4 411 412 413 414
4 415 416 417 418
4 411 414 419 420
4 421 418 417 422
4 420 419 423 424
4 425 421 422 426
4 424 423 427 428
4 429 425 426 430
4 428 427 431 432
4 433 429 430 434
4 432 431 435 436
4 437 433 434 438
4 431 439 440 435
4 441 442 433 437
4 427 443 439 431
4 442 444 429 433
4 423 445 443 427
4 444 446 425 429
4 419 447 445 423
4 446 448 421 425
4 414 449 447 419
4 448 450 418 421
4 414 413 451 449
4 452 415 418 450
4 341 405 453 454
4 455 406 343 456
4 457 436 435 458
4 437 438 459 460
4 342 341 454 397
4 456 343 344 398
4 461 462 413 412
4 415 463 464 416
4 435 440 465 458
4 466 441 437 460
4 467 468 458 465
4 460 469 470 466
4 471 468 467 472
4 470 469 473 474
4 475 476 468 471
4 469 477 478 473
4 462 476 475 479
4 478 477 463 480
4 413 462 479 451
4 480 463 415 452
4 397 481 482 399
4 483 484 398 400
4 397 454 485 481
4 486 456 398 484
3 454 453 485
3 486 455 456
4 451 479 487 488
4 489 480 452 490
4 479 475 491 487
4 492 478 480 489
4 475 471 493 491
4 494 473 478 492
4 471 472 495 493
4 496 474 473 494
4 472 467 497 495
4 498 470 474 496
4 467 465 499 497
4 500 466 470 498
4 465 440 501 499
4 502 441 466 500
4 449 451 488 503
4 490 452 450 504
4 447 449 503 505
4 504 450 448 506
4 445 447 505 507
4 506 448 446 508
4 443 445 507 509
4 508 446 444 510
4 439 443 509 511
4 510 444 442 512
4 440 439 511 501
4 512 442 441 502
4 495 497 513 514
4 515 498 496 516
4 514 513 517 518
4 519 515 516 520
4 518 517 521 522
4 523 519 520 524
4 522 521 525 526
4 527 523 524 528
4 503 488 522 526
4 524 490 504 528
4 487 518 522 488
4 524 520 489 490
4 487 491 514 518
4 516 492 489 520
4 495 514 491 493
4 492 516 496 494
4 499 501 513 497
4 515 502 500 498
4 511 517 513 501
4 515 519 512 502
4 509 521 517 511
4 519 523 510 512
4 507 525 521 509
4 523 527 508 510
4 505 526 525 507
4 527 528 506 508
3 503 526 505
3 506 528 504
4 432 436 529 530
4 531 438 434 532
4 428 432 530 533
4 532 434 430 534
4 424 428 533 535
4 534 430 426 536
4 537 424 535 538
4 536 426 539 540
4 541 537 538 542
4 540 539 543 544
4 545 541 542 546
4 544 543 547 548
4 542 530 529 546
4 531 532 544 548
4 542 538 533 530
4 534 540 544 532
3 538 535 533
3 534 536 540
4 549 550 545 546
4 547 551 552 548
4 549 546 529 553
4 531 548 552 554
4 457 553 529 436
4 531 554 459 438
