ply
format ascii 1.0
element vertex 505
property float x
property float y
property float z
element face 128
property list uchar int vertex_indices
end_header
0.46875 -0.757812 0.242188
0.4375 -0.765625 0.164062
0.5 -0.6875 0.09375
0.5625 -0.671875 0.242188
-0.5 -0.6875 0.09375
-0.4375 -0.765625 0.164062
-0.46875 -0.757812 0.242188
-0.5625 -0.671875 0.242188
0.546875 -0.578125 0.0546875
0.625 -0.5625 0.242188
-0.546875 -0.578125 0.0546875
-0.625 -0.5625 0.242188
0.351562 -0.71875 0.03125
0.351562 -0.617188 -0.0234375
-0.351562 -0.617188 -0.0234375
-0.351562 -0.71875 0.03125
0.351562 -0.78125 0.132812
-0.351562 -0.78125 0.132812
0.273438 -0.796875 0.164062
0.203125 -0.742188 0.09375
-0.203125 -0.742188 0.09375
-0.273438 -0.796875 0.164062
0.15625 -0.648438 0.0546875
-0.15625 -0.648438 0.0546875
0.140625 -0.742188 0.242188
0.078125 -0.65625 0.242188
-0.078125 -0.65625 0.242188
-0.140625 -0.742188 0.242188
0.242188 -0.796875 0.242188
-0.242188 -0.796875 0.242188
0.273438 -0.796875 0.328125
0.203125 -0.742188 0.390625
-0.203125 -0.742188 0.390625
-0.273438 -0.796875 0.328125
0.15625 -0.648438 0.4375
-0.15625 -0.648438 0.4375
0.351562 -0.71875 0.453125
0.351562 -0.617188 0.515625
-0.351562 -0.617188 0.515625
-0.351562 -0.71875 0.453125
0.351562 -0.78125 0.359375
-0.351562 -0.78125 0.359375
0.4375 -0.765625 0.328125
0.5 -0.6875 0.390625
-0.5 -0.6875 0.390625
-0.4375 -0.765625 0.328125
0.546875 -0.578125 0.4375
-0.546875 -0.578125 0.4375
0.445312 -0.78125 0.335938
0.476562 -0.773438 0.242188
-0.445312 -0.78125 0.335938
-0.476562 -0.773438 0.242188
0.351562 -0.804688 0.375
-0.351562 -0.804688 0.375
0.265625 -0.820312 0.335938
-0.265625 -0.820312 0.335938
0.226562 -0.820312 0.242188
-0.226562 -0.820312 0.242188
0.265625 -0.820312 0.15625
-0.265625 -0.820312 0.15625
0.351562 -0.804688 0.117188
-0.351562 -0.804688 0.117188
0.445312 -0.78125 0.15625
-0.445312 -0.78125 0.15625
0.351562 -0.828125 0.242188
-0.351562 -0.828125 0.242188
0.179688 -0.554688 -0.96875
0.164062 -0.632812 -0.929688
0 -0.640625 -0.945312
0 -0.578125 -0.984375
-0.164062 -0.632812 -0.929688
-0.179688 -0.554688 -0.96875
0.328125 -0.523438 -0.945312
0.234375 -0.632812 -0.914062
-0.234375 -0.632812 -0.914062
-0.328125 -0.523438 -0.945312
0.367188 -0.53125 -0.890625
0.265625 -0.664062 -0.820312
-0.265625 -0.664062 -0.820312
-0.367188 -0.53125 -0.890625
0.351562 -0.570312 -0.695312
0.25 -0.6875 -0.703125
-0.25 -0.6875 -0.703125
-0.351562 -0.570312 -0.695312
0.3125 -0.570312 -0.4375
0.210938 -0.710938 -0.445312
-0.210938 -0.710938 -0.445312
-0.3125 -0.570312 -0.4375
0.203125 -0.5625 -0.1875
0.4375 -0.53125 -0.140625
0.398438 -0.671875 -0.046875
0.125 -0.8125 -0.101562
-0.398438 -0.671875 -0.046875
-0.4375 -0.53125 -0.140625
-0.203125 -0.5625 -0.1875
-0.125 -0.8125 -0.101562
0.632812 -0.539062 -0.0390625
0.617188 -0.625 0.0546875
-0.617188 -0.625 0.0546875
-0.632812 -0.539062 -0.0390625
0.828125 -0.445312 0.148438
0.726562 -0.601562 0.203125
-0.726562 -0.601562 0.203125
-0.828125 -0.445312 0.148438
0.859375 -0.59375 0.429688
0.742188 -0.65625 0.375
-0.742188 -0.65625 0.375
-0.859375 -0.59375 0.429688
0.710938 -0.625 0.484375
0.6875 -0.726562 0.414062
-0.6875 -0.726562 0.414062
-0.710938 -0.625 0.484375
0.492188 -0.6875 0.601562
0.4375 -0.796875 0.546875
-0.4375 -0.796875 0.546875
-0.492188 -0.6875 0.601562
0.320312 -0.734375 0.757812
0.3125 -0.835938 0.640625
-0.3125 -0.835938 0.640625
-0.320312 -0.734375 0.757812
0.15625 -0.757812 0.71875
0.203125 -0.851562 0.617188
-0.203125 -0.851562 0.617188
-0.15625 -0.757812 0.71875
0.0625 -0.75 0.492188
0.101562 -0.84375 0.429688
-0.101562 -0.84375 0.429688
-0.0625 -0.75 0.492188
0 -0.742188 0.429688
0 -0.820312 0.351562
0.164062 -0.773438 0.414062
0.25 -0.757812 0.46875
-0.25 -0.757812 0.46875
-0.164062 -0.773438 0.414062
0.328125 -0.742188 0.476562
-0.328125 -0.742188 0.476562
0.429688 -0.71875 0.4375
-0.429688 -0.71875 0.4375
0.601562 -0.664062 0.375
-0.601562 -0.664062 0.375
0.640625 -0.648438 0.296875
-0.640625 -0.648438 0.296875
0.625 -0.648438 0.1875
-0.625 -0.648438 0.1875
0.492188 -0.671875 0.0625
-0.492188 -0.671875 0.0625
0.375 -0.703125 0.015625
-0.375 -0.703125 0.015625
0.164062 -0.75 0.140625
0 -0.726562 0.046875
-0.164062 -0.75 0.140625
0.125 -0.765625 0.304688
-0.125 -0.765625 0.304688
0 -0.765625 0.210938
0.132812 -0.757812 0.210938
-0.132812 -0.757812 0.210938
0.0625 -0.695312 -0.882812
0 -0.6875 -0.890625
-0.0625 -0.695312 -0.882812
0.117188 -0.710938 -0.835938
-0.117188 -0.710938 -0.835938
0.109375 -0.734375 -0.71875
-0.109375 -0.734375 -0.71875
0.078125 -0.75 -0.445312
0.117188 -0.734375 -0.6875
-0.117188 -0.734375 -0.6875
-0.078125 -0.75 -0.445312
0.0859375 -0.742188 -0.289062
0 -0.742188 -0.328125
0 -0.75 -0.445312
-0.0859375 -0.742188 -0.289062
0 -0.734375 -0.679688
0 -0.734375 -0.765625
0.125 -0.75 -0.226562
0.132812 -0.796875 -0.226562
0.09375 -0.78125 -0.273438
-0.09375 -0.78125 -0.273438
-0.132812 -0.796875 -0.226562
-0.125 -0.75 -0.226562
0.101562 -0.742188 -0.148438
0.109375 -0.78125 -0.132812
-0.109375 -0.78125 -0.132812
-0.101562 -0.742188 -0.148438
0 -0.742188 -0.140625
0.0390625 -0.78125 -0.125
-0.0390625 -0.78125 -0.125
0 -0.75 -0.195312
0 -0.796875 -0.1875
0 -0.78125 -0.320312
0.078125 -0.804688 -0.25
0 -0.804688 -0.289062
-0.078125 -0.804688 -0.25
0 -0.828125 -0.203125
0.046875 -0.8125 -0.148438
-0.046875 -0.8125 -0.148438
0.09375 -0.8125 -0.15625
-0.09375 -0.8125 -0.15625
0.109375 -0.828125 -0.226562
-0.109375 -0.828125 -0.226562
0.164062 -0.710938 -0.242188
-0.164062 -0.710938 -0.242188
0.179688 -0.710938 -0.3125
-0.179688 -0.710938 -0.3125
0.257812 -0.554688 -0.3125
-0.257812 -0.554688 -0.3125
0.234375 -0.554688 -0.25
-0.234375 -0.554688 -0.25
0 -0.71875 -0.773438
0.09375 -0.726562 -0.742188
-0.09375 -0.726562 -0.742188
0.09375 -0.710938 -0.820312
-0.09375 -0.710938 -0.820312
0.046875 -0.6875 -0.867188
-0.046875 -0.6875 -0.867188
0 -0.6875 -0.875
0.046875 -0.632812 -0.851562
0 -0.632812 -0.859375
-0.046875 -0.632812 -0.851562
0.09375 -0.640625 -0.8125
-0.09375 -0.640625 -0.8125
0.09375 -0.664062 -0.75
-0.09375 -0.664062 -0.75
0 -0.65625 -0.78125
0.1875 -0.773438 0.15625
0.171875 -0.78125 0.21875
-0.1875 -0.773438 0.15625
-0.171875 -0.78125 0.21875
0.179688 -0.78125 0.296875
-0.179688 -0.78125 0.296875
0.210938 -0.78125 0.375
-0.210938 -0.78125 0.375
0.226562 -0.78125 0.109375
-0.226562 -0.78125 0.109375
0.375 -0.742188 0.0625
-0.375 -0.742188 0.0625
0.476562 -0.71875 0.101562
-0.476562 -0.71875 0.101562
0.578125 -0.679688 0.195312
-0.578125 -0.679688 0.195312
0.585938 -0.6875 0.289062
-0.585938 -0.6875 0.289062
0.5625 -0.695312 0.351562
-0.5625 -0.695312 0.351562
0.421875 -0.773438 0.398438
-0.421875 -0.773438 0.398438
0.335938 -0.757812 0.429688
-0.335938 -0.757812 0.429688
0.273438 -0.773438 0.421875
-0.273438 -0.773438 0.421875
0.234375 -0.757812 0.359375
0.28125 -0.765625 0.398438
-0.234375 -0.757812 0.359375
-0.28125 -0.765625 0.398438
0.335938 -0.75 0.40625
-0.335938 -0.75 0.40625
0.414062 -0.75 0.390625
-0.414062 -0.75 0.390625
0.53125 -0.679688 0.335938
-0.53125 -0.679688 0.335938
0.554688 -0.671875 0.28125
-0.554688 -0.671875 0.28125
0.546875 -0.671875 0.210938
-0.546875 -0.671875 0.210938
0.460938 -0.703125 0.117188
-0.460938 -0.703125 0.117188
0.375 -0.726562 0.0859375
-0.375 -0.726562 0.0859375
0.242188 -0.757812 0.125
-0.242188 -0.757812 0.125
0.203125 -0.75 0.171875
-0.203125 -0.75 0.171875
0.195312 -0.757812 0.296875
-0.195312 -0.757812 0.296875
0.195312 -0.75 0.226562
-0.195312 -0.75 0.226562
0.109375 -0.609375 0.460938
0 -0.601562 0.40625
-0.335938 -0.59375 0.6875
0.679688 -0.492188 0.453125
0.796875 -0.460938 0.40625
-0.796875 -0.460938 0.40625
0.773438 -0.375 0.164062
-0.773438 -0.375 0.164062
0.601562 -0.414062 0
-0.601562 -0.414062 0
0.4375 -0.46875 -0.09375
-0.4375 -0.46875 -0.09375
0 -0.28125 -0.484375
0.179688 -0.257812 -0.414062
0.125 -0.359375 -0.539062
-0.179688 -0.257812 -0.414062
0 -0.320312 -0.570312
-0.125 -0.359375 -0.539062
0.140625 -0.367188 -0.757812
0 -0.34375 -0.804688
-0.140625 -0.367188 -0.757812
0 -0.460938 -0.976562
0.164062 -0.4375 -0.945312
-0.164062 -0.4375 -0.945312
0.328125 -0.398438 -0.914062
-0.328125 -0.398438 -0.914062
0.289062 -0.382812 -0.710938
-0.289062 -0.382812 -0.710938
0.25 -0.390625 -0.5
-0.25 -0.390625 -0.5
0.234375 -0.40625 -0.351562
-0.234375 -0.40625 -0.351562
0.21875 -0.429688 -0.28125
0.210938 -0.46875 -0.226562
-0.210938 -0.46875 -0.226562
-0.21875 -0.429688 -0.28125
0.203125 -0.5 -0.171875
-0.203125 -0.5 -0.171875
0.335938 0.664062 0.0546875
0.34375 0.539062 -0.148438
-0.34375 0.539062 -0.148438
-0.335938 0.664062 0.0546875
0 0.828125 0.0703125
0 0.671875 -0.195312
0.296875 0.265625 -0.3125
-0.296875 0.265625 -0.3125
0 0.351562 -0.382812
0.210938 -0.164062 -0.390625
-0.210938 -0.164062 -0.390625
0 -0.1875 -0.460938
0.734375 -0.0703125 -0.046875
0.851562 -0.0546875 0.234375
-0.734375 -0.0703125 -0.046875
-0.851562 -0.0546875 0.234375
0 0.851562 0.5625
0.460938 0.703125 0.4375
-0.460938 0.703125 0.4375
0 -0.289062 0.898438
0.453125 -0.234375 0.851562
0.453125 0.0703125 0.929688
-0.453125 0.0703125 0.929688
-0.453125 -0.234375 0.851562
0 0.078125 0.984375
0.453125 0.382812 0.867188
0 0.546875 0.898438
-0.453125 0.382812 0.867188
0.726562 -0.335938 0.40625
0.632812 -0.28125 0.453125
-0.726562 -0.335938 0.40625
-0.679688 -0.492188 0.453125
-0.632812 -0.28125 0.453125
0.796875 -0.125 0.5625
0.640625 -0.0546875 0.703125
-0.796875 -0.125 0.5625
-0.640625 -0.0546875 0.703125
0.796875 0.117188 0.617188
0.640625 0.195312 0.75
-0.796875 0.117188 0.617188
-0.640625 0.195312 0.75
0.796875 0.359375 0.539062
0.640625 0.445312 0.679688
-0.796875 0.359375 0.539062
-0.640625 0.445312 0.679688
0.773438 0.4375 0.265625
0.617188 0.585938 0.328125
-0.617188 0.585938 0.328125
0.460938 -0.429688 0.523438
-0.460938 -0.429688 0.523438
0.484375 -0.554688 0.554688
-0.484375 -0.554688 0.554688
0 -0.570312 0.570312
0.195312 -0.617188 0.664062
0.335938 -0.59375 0.6875
-0.195312 -0.617188 0.664062
-0.109375 -0.609375 0.460938
0.859375 0.046875 0.320312
-0.859375 0.046875 0.320312
-0.820312 0.203125 0.328125
0.429688 0.210938 -0.195312
0.40625 -0.148438 -0.171875
-0.429688 0.210938 -0.195312
-0.40625 -0.148438 -0.171875
0.640625 0.429688 -0.0078125
0.484375 0.546875 0.0234375
-0.484375 0.546875 0.0234375
1.02344 0.3125 0.476562
0.890625 0.234375 0.40625
0.921875 0.21875 0.359375
1.01562 0.289062 0.414062
-0.921875 0.21875 0.359375
-1.01562 0.289062 0.414062
1.1875 0.390625 0.4375
-1.1875 0.390625 0.4375
1.26562 0.40625 0.289062
1.35156 0.421875 0.320312
-1.26562 0.40625 0.289062
-1.35156 0.421875 0.320312
1.21094 0.40625 0.078125
1.28125 0.429688 0.0546875
-1.21094 0.40625 0.078125
-1.28125 0.429688 0.0546875
1.03125 0.304688 -0.0390625
1.03906 0.328125 -0.101562
-1.03125 0.304688 -0.0390625
-1.03906 0.328125 -0.101562
0.828125 0.132812 -0.0703125
0.773438 0.125 -0.140625
-0.828125 0.132812 -0.0703125
-0.773438 0.125 -0.140625
1.03906 0.367188 0
0.882812 0.210938 -0.0234375
-0.882812 0.210938 -0.0234375
-1.03906 0.367188 0
1.1875 0.445312 0.09375
-1.1875 0.445312 0.09375
1.23438 0.445312 0.25
-1.23438 0.445312 0.25
1.17188 0.4375 0.359375
-1.17188 0.4375 0.359375
1.02344 0.359375 0.34375
-1.02344 0.359375 0.34375
0.945312 0.289062 0.304688
-0.945312 0.289062 0.304688
0.71875 0.171875 -0.0234375
0.726562 0.0703125 0
-0.71875 0.171875 -0.0234375
-0.726562 0.0703125 0
0.59375 0.164062 -0.125
-0.59375 0.164062 -0.125
0.820312 0.203125 0.328125
0.84375 0.210938 0.289062
0.8125 0.273438 -0.015625
-0.8125 0.273438 -0.015625
0.84375 0.273438 0.015625
0.71875 0.1875 0.0390625
-0.84375 0.273438 0.015625
0.757812 0.273438 0.09375
0.820312 0.273438 0.0859375
-0.757812 0.273438 0.09375
-0.820312 0.273438 0.0859375
0.835938 0.273438 0.171875
0.796875 0.210938 0.203125
-0.796875 0.210938 0.203125
-0.835938 0.273438 0.171875
0.890625 0.265625 0.242188
-0.890625 0.265625 0.242188
-0.84375 0.210938 0.289062
-0.71875 0.1875 0.0390625
0.890625 0.320312 0.234375
0.953125 0.34375 0.289062
-0.890625 0.320312 0.234375
-0.953125 0.34375 0.289062
0.84375 0.320312 0.171875
-0.84375 0.320312 0.171875
0.765625 0.320312 0.09375
-0.765625 0.320312 0.09375
0.828125 0.320312 0.078125
-0.828125 0.320312 0.078125
0.851562 0.320312 0.015625
-0.851562 0.320312 0.015625
0.8125 0.320312 -0.015625
-0.8125 0.320312 -0.015625
0.882812 0.265625 -0.015625
-0.882812 0.265625 -0.015625
1.03906 0.414062 0.328125
-1.03906 0.414062 0.328125
1.1875 0.484375 0.34375
-1.1875 0.484375 0.34375
1.25781 0.492188 0.242188
-1.25781 0.492188 0.242188
1.21094 0.484375 0.0859375
-1.21094 0.484375 0.0859375
1.04688 0.421875 0
-1.04688 0.421875 0
0.9375 0.335938 0.0625
0.890625 0.328125 0.109375
-0.9375 0.335938 0.0625
-0.890625 0.328125 0.109375
1 0.367188 0.125
0.960938 0.351562 0.171875
-1 0.367188 0.125
-0.960938 0.351562 0.171875
1.05469 0.382812 0.1875
1.01562 0.375 0.234375
-1.05469 0.382812 0.1875
-1.01562 0.375 0.234375
1.10938 0.390625 0.210938
1.08594 0.390625 0.273438
-1.10938 0.390625 0.210938
-1.08594 0.390625 0.273438
0.789062 0.328125 -0.125
1.03906 0.492188 -0.0859375
-0.789062 0.328125 -0.125
-1.03906 0.492188 -0.0859375
1.3125 0.53125 0.0546875
-1.3125 0.53125 0.0546875
1.36719 0.5 0.296875
-1.36719 0.5 0.296875
1.23438 0.421875 0.507812
1.25 0.546875 0.46875
-1.23438 0.421875 0.507812
-1.25 0.546875 0.46875
1.02344 0.484375 0.4375
-1.02344 0.3125 0.476562
-1.02344 0.484375 0.4375
0.859375 0.382812 0.382812
-0.890625 0.234375 0.40625
-0.859375 0.382812 0.382812
-0.773438 0.4375 0.265625
-0.640625 0.429688 -0.0078125
3 391 490 395
3 116 118 117
3 490 79 395
3 160 198 78
3 64 62 109
3 79 75 74
3 158 156 172
3 337 116 334
3 65 122 118
3 332 119 116
3 490 317 318
3 340 335 339
3 337 332 116
3 333 116 104
3 104 393 389
3 117 109 104
3 490 496 329
3 490 391 492
3 160 78 74
3 198 162 172
3 198 160 162
3 156 73 159
3 172 159 161
3 67 69 66
3 495 107 336
3 158 160 74
3 78 79 74
3 75 79 490
3 156 67 73
3 71 70 74
3 75 71 74
3 107 110 118
3 70 158 74
3 495 391 107
3 78 198 63
3 329 496 339
3 492 391 495
3 496 490 492
3 496 492 495
3 335 340 495
3 340 496 495
3 488 300 490
3 300 75 490
3 395 79 107
3 391 395 107
3 79 78 107
3 333 104 493
3 78 110 107
3 489 393 76
3 110 78 63
3 65 198 122
3 63 198 65
3 172 161 197
3 333 493 334
3 110 63 65
3 334 338 339
3 110 65 118
3 118 122 117
3 117 122 121
3 337 119 332
3 337 335 119
3 107 118 119
3 116 333 334
3 122 198 121
3 107 119 336
3 335 495 336
3 119 335 336
3 338 493 494
3 119 118 116
3 67 156 68
3 116 117 104
3 159 77 197
3 117 121 64
3 73 72 76
3 489 491 389
3 318 299 296
3 337 334 339
3 70 69 68
3 334 493 338
3 490 329 317
3 117 64 109
3 318 489 486
3 296 72 66
3 335 337 339
3 496 340 339
3 393 104 76
3 329 489 317
3 329 494 489
3 493 491 494
3 339 338 494
3 329 339 494
3 393 489 389
3 494 491 489
3 69 296 66
3 299 318 486
3 489 299 486
3 493 104 389
3 491 493 389
3 488 490 318
3 70 71 69
3 300 488 318
3 317 489 318
3 71 75 296
3 73 76 77
3 109 62 77
3 76 104 77
3 300 318 296
3 73 77 159
3 158 70 68
3 69 71 296
3 296 299 72
3 156 158 68
3 69 67 68
3 67 66 73
3 66 72 73
3 75 300 296
3 299 489 72
3 72 489 76
3 162 160 172
3 160 158 172
3 104 109 77
3 156 159 172
3 62 64 197
3 121 198 197
3 198 172 197
3 64 121 197
3 161 159 197
3 77 62 197
